<svg xmlns="http://www.w3.org/2000/svg" width="82" height="74" stroke="#f8f9d5" stroke-linecap="round" stroke-linejoin="round" fill="#f8f9d5" fill-rule="evenodd"><path d="M8.003 26.883c0-1.326-.45-2.27-1.354-2.83s-2.188-.84-3.896-.84v-4.9c.848 0 1.6-.06 2.256-.185.67-.137 1.23-.35 1.682-.636.45-.3.786-.684 1.005-1.148.232-.465.335-1.025.308-1.682v-6.52c0-1.012.13-1.873.4-2.584a3.52 3.52 0 0 1 1.395-1.764c.684-.465 1.606-.807 2.77-1.025s2.64-.328 4.43-.328v4.614c-.547.014-1.046.062-1.497.144-.438.082-.813.232-1.128.45-.3.205-.533.492-.697.86s-.246.848-.246 1.436v6.132c-.082 2.557-1.682 4.074-4.8 4.553v.246c1.572.232 2.775.725 3.6 1.477s1.23 1.77 1.2 3.056v6.132c0 .588.082 1.066.246 1.436s.396.656.697.86c.314.22.7.37 1.128.45a9.773 9.773 0 0 0 1.497.144v4.635c-1.8 0-3.268-.1-4.43-.328s-2.085-.56-2.77-1.025a3.52 3.52 0 0 1-1.395-1.764c-.26-.725-.4-1.593-.4-2.605v-6.46m11.67 2.604c0-.643.1-1.183.267-1.62.2-.45.45-.813.78-1.087s.7-.472 1.148-.595c.46-.1263.937-.1885 1.415-.185a4.832 4.832 0 0 1 1.354.185c.437.123.82.32 1.148.595s.588.636.78 1.087c.2.438.287.978.287 1.62 0 .615-.096 1.142-.287 1.58s-.45.8-.78 1.087-.724.5-1.148.615c-.424.137-.875.205-1.354.205-.506 0-.978-.068-1.415-.205-.424-.116-.8165-.3262-1.148-.615-.3372-.3002-.6037-.6714-.78-1.087-.178-.437-.267-.964-.267-1.58m11.57 13.032a14.97 14.97 0 0 1-2.03-.144c-.697-.096-1.278-.22-1.743-.37v-4.922c.3878.128.7855.224 1.19.287.37.068.786.102 1.25.102a2.81 2.81 0 0 0 .964-.164c.3174-.0977.597-.2912.8-.554.232-.26.417-.615.554-1.066.137-.437.205-1.005.205-1.702V9.492h6.255v25.4c0 1.053-.137 2.037-.4 2.953-.26.93-.7 1.736-1.292 2.42-.588.697-1.354 1.244-2.297 1.64s-2.092.595-3.445.595m.923-38.944c0-.588.1-1.073.267-1.456.16-.3675.4063-.69.718-.943.3203-.2488.6914-.424 1.087-.513.4376-.0975.8847-.1458 1.333-.144.4417-.0024.8823.046 1.313.144.4.096.766.267 1.066.513.314.232.56.547.738.943.2.383.287.868.287 1.456 0 .574-.096 1.06-.287 1.456-.178.397-.424.718-.738.964-.3.232-.656.403-1.066.513-.4.096-.848.144-1.312.144-.4483.0017-.8954-.0466-1.333-.144-.3916-.1006-.7605-.2747-1.087-.513-.3-.246-.54-.567-.718-.964s-.267-.882-.267-1.456m28.24 22.056c0 1.203-.22 2.256-.656 3.158-.4293.8925-1.0698 1.667-1.866 2.256-.807.6-1.784 1.053-2.933 1.353s-2.434.45-3.855.45c-.752 0-1.45-.027-2.092-.082a14.486 14.486 0 0 1-1.825-.226l-1.66-.4c-.5522-.1712-1.0933-.3766-1.62-.615V26.32c.574.287 1.176.547 1.805.78l1.907.615 1.825.4c.602.096 1.155.144 1.66.144.56 0 1.04-.048 1.436-.144a2.761 2.761 0 0 0 .964-.43c.24-.1663.43-.3925.554-.656a1.894 1.894 0 0 0 .185-.82c0-.287-.048-.54-.144-.76-.082-.232-.28-.472-.595-.718-.314-.26-.78-.547-1.395-.86l-2.44-1.2-2.604-1.333c-.725-.45-1.326-.95-1.805-1.497-.465-.547-.813-1.17-1.046-1.866s-.35-1.552-.35-2.522c0-1.066.205-1.996.615-2.8.4-.807 1-1.477 1.743-2s1.654-.93 2.707-1.2c1.066-.273 2.25-.4 3.548-.4 1.367 0 2.666.157 3.896.472s2.495.786 3.794 1.415l-1.897 4.48a26.707 26.707 0 0 0-2.974-1.21c-.943-.314-1.887-.472-2.83-.472-.848 0-1.463.15-1.846.45-.37.3-.554.7-.554 1.23 0 .273.048.52.144.738.096.205.287.424.574.656.287.22.7.465 1.2.738l2.03.964 2.625 1.27c.78.4 1.45.882 2 1.415s1 1.155 1.292 1.866.45 1.572.45 2.584m11.163 7.694c0 1.012-.13 1.88-.4 2.605s-.73 1.313-1.415 1.764c-.67.465-1.586.807-2.748 1.025s-2.64.328-4.43.328V34.42c.4954-.009.9892-.0572 1.477-.144.437-.082.807-.232 1.107-.45.3188-.21.5686-.5096.718-.86.178-.37.267-.848.267-1.436v-6.132c-.04-1.285.355-2.304 1.2-3.056s2.03-1.244 3.6-1.477v-.246c-3.104-.48-4.696-1.996-4.778-4.553V9.933c0-.588-.1-1.066-.267-1.436a1.94 1.94 0 0 0-.718-.861c-.3-.22-.67-.37-1.107-.45a9.603 9.603 0 0 0-1.477-.144V2.428c1.8 0 3.268.1 4.43.328s2.078.56 2.748 1.025c.684.45 1.155 1.04 1.415 1.764.26.7.4 1.572.4 2.584v6.52c-.014.656.1 1.217.308 1.682s.554.848 1.005 1.148c.45.287 1.005.5 1.66.636.67.123 1.43.185 2.276.185v4.9c-1.7 0-3.015.28-3.917.84s-1.333 1.504-1.333 2.83v6.46" stroke="none"/><path d="M1.862 70.84c-.3 0-.56-.02-.782-.062-.223-.035-.416-.085-.58-.15V69.22c.21.0552.4255.0963.642.123.2443.0363.49.054.738.053.2196-.0006.438-.0302.65-.088.22-.0514.425-.1538.598-.3.182-.147.328-.35.44-.606s.167-.586.167-.984V54.57H5.38v12.674c0 .615-.088 1.148-.264 1.6-.1514.4225-.398.8044-.72 1.116-.3123.3033-.6915.529-1.107.66-.428.147-1.012.22-1.533.22m11.793-4.755h-.07a5.923 5.923 0 0 1-.58.686c-.1884.184-.4014.3408-.633.466a2.84 2.84 0 0 1-.765.273c-.282.06-.606.088-.976.088-.404 0-.776-.06-1.116-.176-.3328-.1-.637-.2792-.888-.52s-.44-.54-.58-.896c-.14-.363-.2-.8-.2-1.283 0-.96.337-1.7 1-2.215.68-.516 1.7-.797 3.094-.844l1.617-.062v-.606c0-.393-.044-.72-.132-.984-.082-.264-.205-.475-.37-.633-.1647-.1682-.37-.2896-.598-.352-.2632-.074-.5357-.1092-.81-.105a4.299 4.299 0 0 0-1.362.21c-.4135.1397-.816.3102-1.204.5l-.562-1.204c.434-.234.917-.434 1.45-.598.5442-.1656 1.1102-.2485 1.68-.246.598 0 1.113.062 1.547.185.44.117.8.308 1.08.57.2948.2712.5157.613.642.993.142.403.2.894.2 1.468v6.61h-1.144zm-2.6.215c.3382.003.6744-.0534.993-.167a2.119 2.119 0 0 0 .79-.5c.223-.228.396-.513.52-.852.13-.346.193-.75.193-1.213v-.87l-1.257.062c-.527.023-.97.082-1.327.176s-.645.226-.86.396c-.2.164-.363.366-.457.606a2.141 2.141 0 0 0-.141.8c0 .54.14.935.422 1.187s.662.378 1.125.378m5.42-8.532h1.652l1.75 5.37.23.747.264.932.237.896.15.642h.062l.15-.642.237-.896.264-.932.23-.747 1.75-5.37h1.652l-3.304 9.65h-2.03zm15.157 8.314h-.07a5.923 5.923 0 0 1-.58.686c-.3866.3737-.8714.63-1.398.74-.282.06-.606.088-.976.088-.404 0-.776-.06-1.116-.176-.3328-.1-.637-.2792-.888-.52-.246-.24-.44-.54-.58-.896-.14-.363-.2-.8-.2-1.283 0-.96.337-1.7 1-2.215.68-.516 1.7-.797 3.094-.844l1.617-.062v-.606c0-.393-.044-.72-.132-.984-.082-.264-.205-.475-.37-.633-.1647-.1682-.37-.2896-.598-.352-.2632-.074-.5357-.1092-.81-.105a4.299 4.299 0 0 0-1.362.21c-.4135.1397-.816.3102-1.204.5l-.562-1.204c.434-.234.917-.434 1.45-.598.5445-.1657 1.1108-.2486 1.68-.246.598 0 1.113.062 1.547.185.44.117.8.308 1.08.57.2948.2712.5157.613.642.993.142.403.2.894.2 1.468v6.61h-1.15zm-2.6.22c.3382.003.6744-.0534.993-.167a2.119 2.119 0 0 0 .79-.5c.223-.23.396-.513.52-.852.13-.346.193-.75.193-1.213v-.87l-1.257.062c-.527.023-.97.082-1.327.176s-.645.226-.86.396c-.2.164-.363.366-.457.606a2.141 2.141 0 0 0-.141.8c0 .54.14.935.422 1.187.287.252.662.378 1.125.378m13.933-2.323c0 .568-.103 1.078-.308 1.53a3.089 3.089 0 0 1-.861 1.134c-.375.3-.832.548-1.37.712-.54.158-1.146.237-1.82.237-.613.0032-1.2247-.0497-1.828-.158-.563-.1-1.034-.25-1.415-.448v-1.564l.677.28.8.237.87.176c.2943.0403.59.06.888.062.937 0 1.63-.176 2.074-.527.45-.352.677-.855.677-1.512a2.35 2.35 0 0 0-.132-.826c-.082-.234-.23-.448-.448-.642-.2-.2-.495-.4-.853-.57-.4388-.23-.891-.4313-1.354-.606-.473-.1813-.93-.405-1.362-.668-.38-.246-.697-.522-.95-.826-.246-.305-.43-.65-.554-1.037-.117-.387-.176-.826-.176-1.318 0-.516.094-.975.28-1.38.1813-.3966.452-.7457.79-1.02.3584-.2913.7706-.5094 1.213-.642.475-.146.996-.22 1.564-.22.697 0 1.324.067 1.88.202.557.13 1.052.296 1.485.5l-.6 1.37c-.38-.17-.814-.316-1.3-.44a5.739 5.739 0 0 0-1.494-.193c-.715 0-1.27.167-1.66.5a1.67 1.67 0 0 0-.6 1.336c0 .334.044.624.132.87a1.76 1.76 0 0 0 .439.659c.205.193.475.378.8.554.34.17.756.352 1.248.545.4796.1854.9463.4025 1.397.65.3733.1994.7142.4543 1.01.756.269.2787.4755.6114.606.976.14.37.215.822.215 1.326m5.953 3.597c-.592 0-1.146-.1-1.66-.273a3.459 3.459 0 0 1-1.345-.88c-.38-.404-.68-.917-.896-1.538-.217-.627-.325-1.38-.325-2.26 0-.92.1-1.7.334-2.338.223-.645.527-1.166.914-1.564a3.519 3.519 0 0 1 1.37-.88c.52-.183 1.08-.273 1.68-.273.4495-.001.8977.049 1.336.15.3796.0793.7485.203 1.1.37l-.475 1.354c-.135-.06-.284-.114-.448-.167a5.121 5.121 0 0 0-.5-.15c-.176-.047-.35-.082-.52-.105a2.886 2.886 0 0 0-.483-.044c-.92 0-1.6.296-2.013.888-.422.586-.633 1.5-.633 2.742 0 1.236.2 2.142.633 2.716.428.568 1.075.852 1.942.852.4328.0052.8644-.048 1.283-.158.36-.102.7137-.2312 1.055-.387v1.424c-.3218.1727-.6646.3028-1.02.387s-.82.132-1.342.132m8.77-9.998l.57.026c.183.0084.365.029.545.062l-.2 1.477-.5-.07c-.17-.024-.33-.035-.483-.035-.37 0-.706.076-1 .228a2.24 2.24 0 0 0-.791.642c-.2302.2984-.4.6387-.5 1.002-.1218.4197-.181.855-.176 1.292v5.202h-1.6v-9.65h1.3l.193 1.767h.07l.466-.73c.1625-.2267.3515-.433.563-.615s.4468-.3264.703-.43a2.361 2.361 0 0 1 .906-.167m4.42 9.826h-1.6v-9.65h1.6v9.65m-1.46-13.025a.98.98 0 0 1 .668-.237 1 1 0 0 1 .36.062c.113.0327.2157.0932.3.176.0914.088.1607.1962.202.316.053.123.08.273.08.448 0 .34-.094.595-.28.765-.182.164-.4.246-.66.246s-.493-.123-.675-.288c-.176-.164-.26-.42-.258-.744.001-.33.1-.586.265-.744zm8.805 13.2a3.586 3.586 0 0 1-.94-.114c-.28-.076-.536-.176-.765-.3-.217-.1243-.4177-.2748-.598-.448-.1666-.166-.3194-.3452-.457-.536h-.105l.053.57.035.475.018.378v4.122h-1.6V57.77h1.3l.23 1.3h.07c.1342-.2042.2872-.3953.457-.57a2.551 2.551 0 0 1 .589-.466 3.078 3.078 0 0 1 .765-.316 3.392 3.392 0 0 1 .949-.123c.55 0 1.052.105 1.503.316s.835.527 1.15.95c.322.416.57.935.747 1.556s.264 1.342.264 2.162c0 .826-.088 1.553-.264 2.18-.176.62-.425 1.143-.747 1.564-.316.422-.7.74-1.15.958-.45.2-1.063.316-1.614.316m-.197-8.675c-.445 0-.823.067-1.134.202-.305.135-.554.34-.747.615s-.328.618-.422 1.028a7.785 7.785 0 0 0-.149 1.45v.36c-.0047.5296.0335 1.0586.114 1.582.082.457.217.844.404 1.16a1.94 1.94 0 0 0 .765.712c.316.158.712.237 1.187.237.8 0 1.37-.32 1.74-.958s.562-1.556.563-2.75c0-1.22-.188-2.13-.562-2.733s-.955-.905-1.758-.905m9.3 7.365c.105 0 .223-.01.352-.018l.387-.044.334-.062.237-.062v1.213c-.076.035-.173.07-.3.105s-.2563.0665-.387.088c-.14.03-.287.05-.44.062a3.79 3.79 0 0 1-.448.026c-.363 0-.7-.047-1-.14a1.919 1.919 0 0 1-.81-.483c-.223-.23-.398-.536-.527-.923-.13-.393-.193-.885-.193-1.477v-5.6H74.2v-.712l1.362-.686.686-2.022h.923v2.215h2.447v1.204H77.19v5.6c0 .568.1.996.272 1.283s.492.43.914.43"/></svg>